<?xml version="1.0" encoding="UTF-8" standalone="no"?>
<!DOCTYPE svg PUBLIC "-//W3C//DTD SVG 1.1//EN" "http://www.w3.org/Graphics/SVG/1.1/DTD/svg11.dtd">
<svg width="100%" height="100%" viewBox="0 0 500 500" version="1.1" xmlns="http://www.w3.org/2000/svg" xmlns:xlink="http://www.w3.org/1999/xlink" xml:space="preserve" xmlns:serif="http://www.serif.com/" style="fill-rule:evenodd;clip-rule:evenodd;stroke-linejoin:round;stroke-miterlimit:2;">
    <g transform="matrix(1.50893,0,0,1.50893,-6.32087,-68.0855)">
        <g transform="matrix(0.737217,0,0,0.737217,-12.2724,17.5409)">
            <path d="M83.314,255.349C68.551,302.517 65.003,327.353 76.058,365.557C97.678,440.275 182.219,466.659 268.089,448.756C330.557,435.732 434.622,407.19 458.467,317.438C471.401,268.752 452.053,216.109 428.976,190.672C397.426,155.898 370.886,152.774 345.118,146.256" style="fill:rgb(246,228,191);"/>
            <path d="M69.015,250.874C53.099,301.727 49.748,328.533 61.666,369.721C85.374,451.653 176.988,483.055 271.147,463.423C303.556,456.666 346.719,445.772 384.91,425.037C425.227,403.148 459.888,370.441 472.947,321.285C487.305,267.242 465.688,208.84 440.072,180.605C405.648,142.662 376.908,138.843 348.792,131.731C340.776,129.703 332.621,134.565 330.593,142.582C328.565,150.598 333.427,158.753 341.444,160.781C364.864,166.706 389.204,169.132 417.879,200.74C438.417,223.377 455.498,270.261 443.987,313.591C433.202,354.187 403.908,380.626 370.613,398.703C335.193,417.933 295.089,427.822 265.031,434.089C187.437,450.267 109.987,428.91 90.45,361.392C80.259,326.173 84.002,303.309 97.612,259.824C100.082,251.933 95.681,243.52 87.789,241.05C79.898,238.58 71.485,242.982 69.015,250.874Z"/>
        </g>
        <g transform="matrix(0.737217,0,0,0.737217,-12.2724,17.5409)">
            <path d="M64.379,332.046C74.376,371.56 79.698,393.167 104.211,417.38C146.571,459.222 220.993,464.74 274.026,451.516C375.931,426.106 383.579,418.676 424.068,389.54C434.136,382.296 436.428,368.24 429.183,358.172C421.938,348.104 407.883,345.812 397.815,353.057C361.549,379.154 354.426,385.145 263.151,407.904C223.555,417.777 167.425,416.643 135.797,385.402C117.539,367.367 115.4,350.453 107.953,321.021C104.911,308.997 92.679,301.704 80.654,304.746C68.629,307.789 61.337,320.021 64.379,332.046Z" style="fill:rgb(218,197,153);"/>
        </g>
        <g transform="matrix(0.737217,0,0,0.737217,-12.2724,17.5409)">
            <path d="M69.015,250.874C53.099,301.727 49.748,328.533 61.666,369.721C85.374,451.653 176.988,483.055 271.147,463.423C303.556,456.666 346.719,445.772 384.91,425.037C425.227,403.148 459.888,370.441 472.947,321.285C487.305,267.242 465.688,208.84 440.072,180.605C405.648,142.662 376.908,138.843 348.792,131.731C340.776,129.703 332.621,134.565 330.593,142.582C328.565,150.598 333.427,158.753 341.444,160.781C364.864,166.706 389.204,169.132 417.879,200.74C438.417,223.377 455.498,270.261 443.987,313.591C433.202,354.187 403.908,380.626 370.613,398.703C335.193,417.933 295.089,427.822 265.031,434.089C187.437,450.267 109.987,428.91 90.45,361.392C80.259,326.173 84.002,303.309 97.612,259.824C100.082,251.933 95.681,243.52 87.789,241.05C79.898,238.58 71.485,242.982 69.015,250.874Z"/>
        </g>
        <g transform="matrix(0.737217,0,0,0.737217,-12.2724,17.5409)">
            <path d="M83.314,255.349C49.388,261.97 14.681,227.698 40.481,194.109C63.844,163.693 113.783,197.322 113.887,197.3C117.998,196.425 90.116,143.741 122.082,130.886C160.849,115.297 184.976,157.936 184.979,157.933C186.105,156.77 184.719,108.232 204.823,97.372C246.42,74.903 269.068,128.345 273.48,132.492C273.617,132.621 277.127,68.742 314.771,70.17C365.67,72.102 364.236,120.416 345.118,146.256" style="fill:rgb(246,228,191);"/>
            <path d="M265.775,96.484C265.033,95.693 264.282,94.928 263.527,94.196C247.976,79.112 226.042,68.882 197.703,84.19C189.475,88.634 183.097,96.819 178.903,107.052C176.818,112.139 175.22,118.356 174.005,124.608C159.969,114.528 140.297,107.413 116.492,116.986C98.577,124.19 92.002,138.966 91.565,155.587C91.442,160.289 91.991,165.612 92.849,170.849C86.851,168.865 80.373,167.29 73.87,166.684C57.193,165.132 40.552,169.42 28.599,184.983C17.836,198.995 15.079,213.216 17.16,225.839C21.892,254.537 54.005,276.334 86.184,270.054C94.3,268.47 99.603,260.595 98.019,252.479C96.435,244.363 88.56,239.06 80.444,240.644C65.118,243.635 48.979,234.633 46.726,220.964C45.813,215.43 47.643,209.38 52.363,203.236C57.064,197.115 63.819,195.968 70.381,196.46C79.783,197.166 89.12,201.036 95.789,204.316C101.272,207.013 105.033,209.432 105.75,209.884C112.008,213.833 116.792,212 117.008,211.954C122.131,210.863 130.812,206.467 129.105,193.604C128.495,189.009 123.279,175.877 121.81,162.456C121.053,155.537 120.335,147.737 127.672,144.787C152.66,134.738 168.535,159.894 171.586,164.738C171.831,165.129 171.97,165.366 171.996,165.409C172.16,165.693 172.257,165.847 172.275,165.874C174.261,169.052 176.218,170.092 176.523,170.3C180.691,173.15 183.366,174.581 184.979,172.915L195.743,168.354C196.823,167.24 198.641,165.153 199.597,161.387C199.925,160.092 200.31,154.829 200.896,147.602C201.448,140.789 202.454,131.589 204.939,123.259C206.509,117.996 207.999,112.685 211.944,110.554C228.473,101.626 240.158,111.951 247.754,121.309C253.452,128.33 257.339,135.456 259.525,138.805C261,141.064 262.33,142.574 263.217,143.408C263.433,143.611 286.801,150.115 288.563,132.206C289.003,127.733 290.518,114.208 295.688,101.958C299.221,93.587 304.09,84.758 314.202,85.142C327.495,85.646 335.849,89.942 339.656,97.259C345.949,109.356 341.327,126.189 333.073,137.345C328.155,143.993 329.559,153.382 336.207,158.3C342.855,163.219 352.244,161.814 357.162,155.167C371.854,135.309 377.44,104.963 366.239,83.43C358.379,68.322 342.783,56.24 315.339,55.199C295.659,54.452 281.972,65.284 273.056,80.358C270.067,85.412 267.678,90.963 265.775,96.484Z"/>
        </g>
        <g transform="matrix(0.737217,0,0,0.737217,-17.8444,23.9701)">
            <path d="M167.981,229.925C164.544,251.667 165.757,262.479 175.677,279.47C179.847,286.611 189.029,289.023 196.17,284.854C203.311,280.684 205.723,271.502 201.554,264.361C195.614,254.187 195.52,247.622 197.578,234.603C198.869,226.436 193.286,218.756 185.119,217.465C176.951,216.174 169.272,221.757 167.981,229.925Z" style="fill:rgb(218,197,153);"/>
        </g>
        <g transform="matrix(0.737217,0,0,0.737217,-12.2724,17.5409)">
            <path d="M167.981,229.925C164.544,251.667 165.757,262.479 175.677,279.47C179.847,286.611 189.029,289.023 196.17,284.854C203.311,280.684 205.723,271.502 201.554,264.361C195.614,254.187 195.52,247.622 197.578,234.603C198.869,226.436 193.286,218.756 185.119,217.465C176.951,216.174 169.272,221.757 167.981,229.925Z"/>
        </g>
        <g transform="matrix(0.737217,0,0,0.737217,-15.0155,25.2217)">
            <path d="M229.536,223.611C235.09,228.959 240.042,235.905 242.066,246.274C243.65,254.39 251.525,259.693 259.641,258.109C267.757,256.525 273.06,248.65 271.476,240.534C268.043,222.942 259.743,211.099 250.32,202.026C244.363,196.29 234.871,196.47 229.135,202.427C223.4,208.383 223.579,217.876 229.536,223.611Z" style="fill:rgb(218,197,153);"/>
        </g>
        <g transform="matrix(0.737217,0,0,0.737217,-12.2724,17.5409)">
            <path d="M229.536,223.611C235.09,228.959 240.042,235.905 242.066,246.274C243.65,254.39 251.525,259.693 259.641,258.109C267.757,256.525 273.06,248.65 271.476,240.534C268.043,222.942 259.743,211.099 250.32,202.026C244.363,196.29 234.871,196.47 229.135,202.427C223.4,208.383 223.579,217.876 229.536,223.611Z"/>
        </g>
        <g transform="matrix(0.737217,0,0,0.737217,-11.9981,25.7703)">
            <path d="M287.589,198.841C303.842,203.814 311.257,211.912 315.784,220.296C319.712,227.573 328.808,230.291 336.085,226.363C343.361,222.435 346.08,213.338 342.152,206.062C334.72,192.295 323.043,178.353 296.356,170.187C288.449,167.768 280.065,172.223 277.646,180.13C275.226,188.038 279.682,196.421 287.589,198.841Z" style="fill:rgb(218,197,153);"/>
        </g>
        <g transform="matrix(0.737217,0,0,0.737217,-12.2724,17.5409)">
            <path d="M287.589,198.841C303.842,203.814 311.257,211.912 315.784,220.296C319.712,227.573 328.808,230.291 336.085,226.363C343.361,222.435 346.08,213.338 342.152,206.062C334.72,192.295 323.043,178.353 296.356,170.187C288.449,167.768 280.065,172.223 277.646,180.13C275.226,188.038 279.682,196.421 287.589,198.841Z"/>
        </g>
    </g>
</svg>
