<?xml version="1.0" encoding="UTF-8" standalone="no"?>
<!DOCTYPE svg PUBLIC "-//W3C//DTD SVG 1.1//EN" "http://www.w3.org/Graphics/SVG/1.1/DTD/svg11.dtd">
<svg width="100%" height="100%" viewBox="0 0 500 500" version="1.1" xmlns="http://www.w3.org/2000/svg" xmlns:xlink="http://www.w3.org/1999/xlink" xml:space="preserve" xmlns:serif="http://www.serif.com/" style="fill-rule:evenodd;clip-rule:evenodd;stroke-linejoin:round;stroke-miterlimit:2;">
    <g>
        <g transform="matrix(0.684386,0,0,0.684386,-10.6076,21.2468)">
            <path d="M345.118,146.256C364.236,120.416 365.67,72.102 314.771,70.17C277.127,68.742 273.617,132.621 273.48,132.492C269.068,128.345 246.42,74.903 204.823,97.372C184.719,108.232 186.105,156.77 184.979,157.933C184.976,157.936 160.849,115.297 122.082,130.886C90.116,143.741 117.998,196.425 113.887,197.3C113.783,197.322 63.844,163.693 40.481,194.109C14.681,227.698 49.388,261.97 83.314,255.349C68.551,302.517 65.003,327.353 76.058,365.557C97.678,440.275 182.219,466.659 268.089,448.756C330.557,435.732 434.622,407.19 458.467,317.438C471.401,268.752 452.053,216.109 428.976,190.672C397.426,155.898 370.886,152.774 345.118,146.256" style="fill:rgb(246,228,191);"/>
            <path d="M265.68,96.036C265.024,95.344 264.36,94.672 263.693,94.025C248.076,78.878 226.049,68.608 197.59,83.98C189.318,88.449 182.9,96.674 178.683,106.962C176.632,111.965 175.051,118.062 173.842,124.206C159.775,114.2 140.135,107.222 116.403,116.765C98.386,124.011 91.766,138.866 91.328,155.58C91.207,160.18 91.728,165.373 92.555,170.501C86.645,168.57 80.28,167.042 73.892,166.447C57.137,164.887 40.42,169.202 28.41,184.838C17.599,198.912 14.835,213.199 16.925,225.877C20.519,247.678 39.846,265.519 63.034,270.185C52.228,309.216 51.115,334.114 61.437,369.787C85.178,451.834 176.905,483.315 271.195,463.656C303.624,456.895 346.811,445.993 385.024,425.246C425.396,403.327 460.1,370.57 473.177,321.346C487.557,267.218 465.904,208.724 440.248,180.445C413.355,150.803 389.928,141.956 367.56,136.118C373.918,118.714 374.481,98.759 366.45,83.321C358.558,68.15 342.905,56.006 315.348,54.961C295.571,54.21 281.811,65.089 272.851,80.237C269.921,85.192 267.566,90.624 265.68,96.036ZM332.851,137.248L332.882,137.203C337.942,130.364 341.369,121.445 342.03,112.674C342.572,105.466 341.325,98.238 336.405,93.112C331.831,88.348 324.486,85.77 314.193,85.38C304.189,85 299.403,93.769 295.907,102.051C290.749,114.273 289.239,127.767 288.8,132.23C287.011,150.414 263.274,143.787 263.054,143.581C262.159,142.739 260.814,141.215 259.326,138.935C257.142,135.59 253.261,128.471 247.569,121.459C240.035,112.176 228.453,101.907 212.057,110.764C208.16,112.868 206.718,118.13 205.167,123.327C202.687,131.64 201.684,140.822 201.133,147.622C200.545,154.869 200.157,160.147 199.828,161.445C198.857,165.27 197.01,167.388 195.914,168.52C193.047,171.481 189.101,173.153 184.979,173.153L176.388,170.497C176.079,170.285 174.091,169.229 172.073,166.001L171.384,164.865C168.353,160.051 152.592,135.022 127.761,145.008C120.535,147.914 121.301,155.616 122.047,162.43C123.516,175.849 128.731,188.978 129.341,193.573C131.073,206.625 122.256,211.08 117.057,212.187C116.839,212.233 111.979,214.096 105.623,210.086C104.908,209.634 101.155,207.221 95.684,204.529C89.038,201.261 79.733,197.401 70.364,196.698C63.879,196.211 57.198,197.331 52.551,203.381C47.88,209.462 46.057,215.447 46.961,220.925C49.194,234.475 65.206,243.375 80.398,240.41C85.662,239.383 91.078,241.202 94.655,245.198C98.232,249.193 99.441,254.777 97.84,259.895C84.248,303.321 80.501,326.154 90.679,361.326C110.183,428.73 187.519,450.007 264.982,433.856C295.022,427.593 335.101,417.712 370.499,398.494C403.739,380.447 432.99,354.058 443.757,313.53C455.246,270.285 438.201,223.493 417.703,200.899C389.174,169.453 364.939,166.944 341.632,161.072L341.538,161.052L341.415,161.019L341.385,161.012L341.333,160.997L340.82,160.86L340.659,160.808L340.631,160.8L340.556,160.775L340.11,160.632L339.948,160.571L339.897,160.554L339.768,160.503L339.407,160.368L339.265,160.306L339.182,160.273L338.988,160.185L338.714,160.066L338.602,160.011L338.489,159.96L338.224,159.823L338.032,159.729L337.955,159.685L337.817,159.614L337.483,159.421L337.362,159.354L337.316,159.325L337.167,159.238L336.774,158.984L336.706,158.941L336.683,158.925L336.541,158.833L336.11,158.523L336.065,158.492L336.052,158.481L335.938,158.399L335.524,158.069L335.448,158.01L335.429,157.994L335.359,157.938L335.032,157.651L334.862,157.504L334.83,157.473L334.805,157.451L334.648,157.299C332.93,155.675 331.663,153.72 330.874,151.607L330.797,151.409L330.786,151.375L330.773,151.341L330.707,151.139C329.977,149.004 329.718,146.688 330.021,144.345L330.046,144.127L330.052,144.095L330.057,144.05L330.096,143.828L330.166,143.399L330.185,143.311L330.189,143.287L330.211,143.193L330.322,142.676L330.359,142.54L330.362,142.523L330.377,142.471L330.514,141.958L330.566,141.797L330.573,141.769L330.599,141.694L330.742,141.248L330.803,141.086L330.82,141.035L330.87,140.906L331.006,140.545L331.068,140.403L331.101,140.32L331.189,140.126L331.307,139.852L331.363,139.741L331.414,139.627L331.55,139.362L331.645,139.17L331.689,139.093L331.76,138.955L331.953,138.621L332.02,138.501L332.049,138.454L332.136,138.305L332.39,137.912L332.432,137.845L332.449,137.821L332.541,137.679L332.851,137.248Z"/>
        </g>
        <g transform="matrix(0.684386,0,0,0.684386,-10.6076,21.2468)">
            <path d="M56.655,334C67.105,375.304 72.989,397.738 98.612,423.048C142.876,466.771 220.536,473.065 275.954,459.247C379.743,433.367 387.484,425.682 428.722,396.007C442.359,386.194 445.463,367.156 435.65,353.519C425.837,339.882 406.798,336.777 393.161,346.59C357.644,372.148 350.615,377.884 261.224,400.173C224.005,409.454 171.124,409.098 141.396,379.734C124.244,362.792 122.672,346.715 115.677,319.067C111.556,302.78 94.987,292.902 78.7,297.023C62.412,301.143 52.534,317.712 56.655,334Z" style="fill:rgb(218,197,153);"/>
        </g>
        <g transform="matrix(0.684386,0,0,0.684386,-10.6076,21.2468)">
            <path d="M265.68,96.036C265.024,95.344 264.36,94.672 263.693,94.025C248.076,78.878 226.049,68.608 197.59,83.98C189.318,88.449 182.9,96.674 178.683,106.962C176.632,111.965 175.051,118.062 173.842,124.206C159.775,114.2 140.135,107.222 116.403,116.765C98.386,124.011 91.766,138.866 91.328,155.58C91.207,160.18 91.728,165.373 92.555,170.501C86.645,168.57 80.28,167.042 73.892,166.447C57.137,164.887 40.42,169.202 28.41,184.838C17.599,198.912 14.835,213.199 16.925,225.877C20.519,247.678 39.846,265.519 63.034,270.185C52.228,309.216 51.115,334.114 61.437,369.787C85.178,451.834 176.905,483.315 271.195,463.656C303.624,456.895 346.811,445.993 385.024,425.246C425.396,403.327 460.1,370.57 473.177,321.346C487.557,267.218 465.904,208.724 440.248,180.445C413.355,150.803 389.928,141.956 367.56,136.118C373.918,118.714 374.481,98.759 366.45,83.321C358.558,68.15 342.905,56.006 315.348,54.961C295.571,54.21 281.811,65.089 272.851,80.237C269.921,85.192 267.566,90.624 265.68,96.036ZM332.851,137.248L332.882,137.203C337.942,130.364 341.369,121.445 342.03,112.674C342.572,105.466 341.325,98.238 336.405,93.112C331.831,88.348 324.486,85.77 314.193,85.38C304.189,85 299.403,93.769 295.907,102.051C290.749,114.273 289.239,127.767 288.8,132.23C287.011,150.414 263.274,143.787 263.054,143.581C262.159,142.739 260.814,141.215 259.326,138.935C257.142,135.59 253.261,128.471 247.569,121.459C240.035,112.176 228.453,101.907 212.057,110.764C208.16,112.868 206.718,118.13 205.167,123.327C202.687,131.64 201.684,140.822 201.133,147.622C200.545,154.869 200.157,160.147 199.828,161.445C198.857,165.27 197.01,167.388 195.914,168.52C193.047,171.481 189.101,173.153 184.979,173.153L176.388,170.497C176.079,170.285 174.091,169.229 172.073,166.001L171.384,164.865C168.353,160.051 152.592,135.022 127.761,145.008C120.535,147.914 121.301,155.616 122.047,162.43C123.516,175.849 128.731,188.978 129.341,193.573C131.073,206.625 122.256,211.08 117.057,212.187C116.839,212.233 111.979,214.096 105.623,210.086C104.908,209.634 101.155,207.221 95.684,204.529C89.038,201.261 79.733,197.401 70.364,196.698C63.879,196.211 57.198,197.331 52.551,203.381C47.88,209.462 46.057,215.447 46.961,220.925C49.194,234.475 65.206,243.375 80.398,240.41C85.662,239.383 91.078,241.202 94.655,245.198C98.232,249.193 99.441,254.777 97.84,259.895C84.248,303.321 80.501,326.154 90.679,361.326C110.183,428.73 187.519,450.007 264.982,433.856C295.022,427.593 335.101,417.712 370.499,398.494C403.739,380.447 432.99,354.058 443.757,313.53C455.246,270.285 438.201,223.493 417.703,200.899C389.174,169.453 364.939,166.944 341.632,161.072L341.538,161.052L341.415,161.019L341.385,161.012L341.333,160.997L340.82,160.86L340.659,160.808L340.631,160.8L340.556,160.775L340.11,160.632L339.948,160.571L339.897,160.554L339.768,160.503L339.407,160.368L339.265,160.306L339.182,160.273L338.988,160.185L338.714,160.066L338.602,160.011L338.489,159.96L338.224,159.823L338.032,159.729L337.955,159.685L337.817,159.614L337.483,159.421L337.362,159.354L337.316,159.325L337.167,159.238L336.774,158.984L336.706,158.941L336.683,158.925L336.541,158.833L336.11,158.523L336.065,158.492L336.052,158.481L335.938,158.399L335.524,158.069L335.448,158.01L335.429,157.994L335.359,157.938L335.032,157.651L334.862,157.504L334.83,157.473L334.805,157.451L334.648,157.299C332.93,155.675 331.663,153.72 330.874,151.607L330.797,151.409L330.786,151.375L330.773,151.341L330.707,151.139C329.977,149.004 329.718,146.688 330.021,144.345L330.046,144.127L330.052,144.095L330.057,144.05L330.096,143.828L330.166,143.399L330.185,143.311L330.189,143.287L330.211,143.193L330.322,142.676L330.359,142.54L330.362,142.523L330.377,142.471L330.514,141.958L330.566,141.797L330.573,141.769L330.599,141.694L330.742,141.248L330.803,141.086L330.82,141.035L330.87,140.906L331.006,140.545L331.068,140.403L331.101,140.32L331.189,140.126L331.307,139.852L331.363,139.741L331.414,139.627L331.55,139.362L331.645,139.17L331.689,139.093L331.76,138.955L331.953,138.621L332.02,138.501L332.049,138.454L332.136,138.305L332.39,137.912L332.432,137.845L332.449,137.821L332.541,137.679L332.851,137.248Z"/>
        </g>
        <g transform="matrix(0.684386,0,0,0.684386,-15.7803,27.2153)">
            <path d="M167.746,229.888C164.298,251.699 165.52,262.545 175.472,279.59C179.707,286.844 189.036,289.295 196.29,285.059C203.544,280.824 205.995,271.495 201.759,264.241C195.851,254.122 195.766,247.59 197.813,234.64C199.125,226.343 193.453,218.542 185.156,217.23C176.859,215.919 169.057,221.59 167.746,229.888Z" style="fill:rgb(218,197,153);"/>
        </g>
        <g transform="matrix(0.684386,0,0,0.684386,-10.6076,21.2468)">
            <path d="M167.746,229.888C164.298,251.699 165.52,262.545 175.472,279.59C179.707,286.844 189.036,289.295 196.29,285.059C203.544,280.824 205.995,271.495 201.759,264.241C195.851,254.122 195.766,247.59 197.813,234.64C199.125,226.343 193.453,218.542 185.156,217.23C176.859,215.919 169.057,221.59 167.746,229.888Z"/>
        </g>
        <g transform="matrix(0.684386,0,0,0.684386,-13.1541,28.3772)">
            <path d="M229.371,223.783C234.894,229.101 239.82,236.008 241.833,246.32C243.442,254.565 251.442,259.952 259.687,258.343C267.931,256.734 273.319,248.734 271.71,240.489C268.265,222.839 259.938,210.957 250.485,201.855C244.434,196.028 234.79,196.21 228.964,202.262C223.137,208.313 223.32,217.956 229.371,223.783Z" style="fill:rgb(218,197,153);"/>
        </g>
        <g transform="matrix(0.684386,0,0,0.684386,-10.6076,21.2468)">
            <path d="M229.371,223.783C234.894,229.101 239.82,236.008 241.833,246.32C243.442,254.565 251.442,259.952 259.687,258.343C267.931,256.734 273.319,248.734 271.71,240.489C268.265,222.839 259.938,210.957 250.485,201.855C244.434,196.028 234.79,196.21 228.964,202.262C223.137,208.313 223.32,217.956 229.371,223.783Z"/>
        </g>
        <g transform="matrix(0.684386,0,0,0.684386,-10.3529,28.8865)">
            <path d="M287.519,199.068C303.689,204.016 311.071,212.068 315.574,220.409C319.565,227.801 328.806,230.563 336.198,226.573C343.59,222.582 346.352,213.341 342.361,205.949C334.906,192.139 323.196,178.151 296.426,169.96C288.393,167.502 279.876,172.028 277.418,180.061C274.96,188.094 279.486,196.611 287.519,199.068Z" style="fill:rgb(218,197,153);"/>
        </g>
        <g transform="matrix(0.684386,0,0,0.684386,-10.6076,21.2468)">
            <path d="M287.519,199.068C303.689,204.016 311.071,212.068 315.574,220.409C319.565,227.801 328.806,230.563 336.198,226.573C343.59,222.582 346.352,213.341 342.361,205.949C334.906,192.139 323.196,178.151 296.426,169.96C288.393,167.502 279.876,172.028 277.418,180.061C274.96,188.094 279.486,196.611 287.519,199.068Z"/>
        </g>
    </g>
    <g>
        <g transform="matrix(0.622786,0.283764,-0.283764,0.622786,271.038,70.0948)">
            <path d="M345.118,146.256C364.236,120.416 365.67,72.102 314.771,70.17C277.127,68.742 273.617,132.621 273.48,132.492C269.068,128.345 246.42,74.903 204.823,97.372C184.719,108.232 186.105,156.77 184.979,157.933C184.976,157.936 160.849,115.297 122.082,130.886C90.116,143.741 117.998,196.425 113.887,197.3C113.783,197.322 63.844,163.693 40.481,194.109C14.681,227.698 49.388,261.97 83.314,255.349C68.551,302.517 65.003,327.353 76.058,365.557C97.678,440.275 182.219,466.659 268.089,448.756C330.557,435.732 434.622,407.19 458.467,317.438C471.401,268.752 452.053,216.109 428.976,190.672C397.426,155.898 370.886,152.774 345.118,146.256" style="fill:rgb(246,228,191);"/>
            <path d="M92.555,170.501C86.645,168.57 80.28,167.042 73.892,166.447C57.137,164.887 40.42,169.202 28.41,184.838C17.599,198.912 14.835,213.199 16.925,225.877C20.519,247.678 39.846,265.519 63.034,270.185C52.228,309.216 51.115,334.114 61.437,369.787C85.178,451.834 176.905,483.315 271.195,463.656C303.624,456.895 346.811,445.993 385.024,425.246C425.396,403.327 460.1,370.57 473.177,321.346C487.557,267.218 465.904,208.724 440.248,180.445C413.355,150.803 389.928,141.956 367.56,136.118C373.918,118.714 374.481,98.759 366.45,83.321C358.558,68.15 342.905,56.006 315.348,54.961C295.571,54.21 281.811,65.089 272.851,80.237C269.921,85.192 267.566,90.624 265.68,96.036C265.024,95.344 264.36,94.672 263.693,94.025C248.076,78.878 226.049,68.608 197.59,83.98C189.318,88.449 182.9,96.674 178.683,106.962C176.632,111.965 175.051,118.062 173.842,124.206C159.775,114.2 140.135,107.222 116.403,116.765C98.386,124.011 91.766,138.866 91.328,155.58C91.207,160.18 91.728,165.373 92.555,170.501ZM332.851,137.248L332.882,137.203C337.942,130.364 341.369,121.445 342.03,112.674C342.572,105.466 341.325,98.238 336.405,93.112C331.831,88.348 324.486,85.77 314.193,85.38C304.189,85 299.403,93.769 295.907,102.051C290.749,114.273 289.239,127.767 288.8,132.23C287.011,150.414 263.274,143.787 263.054,143.581C262.159,142.739 260.814,141.215 259.326,138.935C257.142,135.59 253.261,128.471 247.569,121.459C240.035,112.176 228.453,101.907 212.057,110.764C208.16,112.868 206.718,118.13 205.167,123.327C202.687,131.64 201.684,140.822 201.133,147.622C200.545,154.869 200.157,160.147 199.828,161.445C198.857,165.27 197.01,167.388 195.914,168.52C194.59,169.887 193.022,170.994 191.29,171.783L176.388,170.497C176.079,170.285 174.091,169.229 172.073,166.001L171.384,164.865C168.353,160.051 152.592,135.022 127.761,145.008C120.535,147.914 121.301,155.616 122.047,162.43C123.516,175.849 128.731,188.978 129.341,193.573C131.073,206.625 122.256,211.08 117.057,212.187C116.839,212.233 111.979,214.096 105.623,210.086C104.908,209.634 101.155,207.221 95.684,204.529C89.038,201.261 79.733,197.401 70.364,196.698C63.879,196.211 57.198,197.331 52.551,203.381C47.88,209.462 46.057,215.447 46.961,220.925C49.194,234.475 65.206,243.375 80.398,240.41C85.662,239.383 91.078,241.202 94.655,245.198C98.232,249.193 99.441,254.777 97.84,259.895C84.248,303.321 80.501,326.154 90.679,361.326C110.183,428.73 187.519,450.007 264.982,433.856C295.022,427.593 335.101,417.712 370.499,398.494C403.739,380.447 432.99,354.058 443.757,313.53C455.246,270.285 438.201,223.493 417.703,200.899C389.174,169.453 364.939,166.944 341.632,161.072L341.538,161.052L341.415,161.019L341.385,161.012L341.333,160.997L340.82,160.86L340.659,160.808L340.631,160.8L340.556,160.775L340.11,160.632L339.948,160.571L339.897,160.554L339.768,160.503L339.407,160.368L339.265,160.306L339.182,160.273L338.988,160.185L338.714,160.066L338.602,160.011L338.489,159.96L338.224,159.823L338.032,159.729L337.955,159.685L337.817,159.614L337.483,159.421L337.362,159.354L337.316,159.325L337.167,159.238L336.774,158.984L336.706,158.941L336.683,158.925L336.541,158.833L336.11,158.523L336.065,158.492L336.052,158.481L335.938,158.399L335.524,158.069L335.448,158.01L335.429,157.994L335.359,157.938L335.032,157.651L334.862,157.504L334.83,157.473L334.805,157.451L334.648,157.299C332.93,155.675 331.663,153.72 330.874,151.607L330.797,151.409L330.786,151.375L330.773,151.341L330.707,151.139C329.977,149.004 329.718,146.688 330.021,144.345L330.046,144.127L330.052,144.095L330.057,144.05L330.096,143.828L330.166,143.399L330.185,143.311L330.189,143.287L330.211,143.193L330.322,142.676L330.359,142.54L330.362,142.523L330.377,142.471L330.514,141.958L330.566,141.797L330.573,141.769L330.599,141.694L330.742,141.248L330.803,141.086L330.82,141.035L330.87,140.906L331.006,140.545L331.068,140.403L331.101,140.32L331.189,140.126L331.307,139.852L331.363,139.741L331.414,139.627L331.55,139.362L331.645,139.17L331.689,139.093L331.76,138.955L331.953,138.621L332.02,138.501L332.049,138.454L332.136,138.305L332.39,137.912L332.432,137.845L332.449,137.821L332.541,137.679L332.851,137.248Z"/>
        </g>
        <g transform="matrix(0.622786,0.283764,-0.283764,0.622786,271.038,70.0948)">
            <path d="M56.346,333.505C66.755,374.646 72.4,399.586 97.922,424.796C142.237,468.568 218.936,473.051 274.417,459.217C378.13,433.356 386.204,421.664 427.411,392.012C441.048,382.198 444.153,363.16 434.34,349.523C424.526,335.886 405.488,332.781 391.851,342.595C356.304,368.174 349.153,377.835 259.687,400.143C222.528,409.409 170.386,410.799 140.706,381.482C123.451,364.438 122.405,346.387 115.368,318.572C111.247,302.285 94.678,292.407 78.391,296.528C62.103,300.649 52.225,317.218 56.346,333.505Z" style="fill:rgb(218,197,153);"/>
        </g>
        <g transform="matrix(0.622786,0.283764,-0.283764,0.622786,271.038,70.0948)">
            <path d="M92.555,170.501C86.645,168.57 80.28,167.042 73.892,166.447C57.137,164.887 40.42,169.202 28.41,184.838C17.599,198.912 14.835,213.199 16.925,225.877C20.519,247.678 39.846,265.519 63.034,270.185C52.228,309.216 51.115,334.114 61.437,369.787C85.178,451.834 176.905,483.315 271.195,463.656C303.624,456.895 346.811,445.993 385.024,425.246C425.396,403.327 460.1,370.57 473.177,321.346C487.557,267.218 465.904,208.724 440.248,180.445C413.355,150.803 389.928,141.956 367.56,136.118C373.918,118.714 374.481,98.759 366.45,83.321C358.558,68.15 342.905,56.006 315.348,54.961C295.571,54.21 281.811,65.089 272.851,80.237C269.921,85.192 267.566,90.624 265.68,96.036C265.024,95.344 264.36,94.672 263.693,94.025C248.076,78.878 226.049,68.608 197.59,83.98C189.318,88.449 182.9,96.674 178.683,106.962C176.632,111.965 175.051,118.062 173.842,124.206C159.775,114.2 140.135,107.222 116.403,116.765C98.386,124.011 91.766,138.866 91.328,155.58C91.207,160.18 91.728,165.373 92.555,170.501ZM332.851,137.248L332.882,137.203C337.942,130.364 341.369,121.445 342.03,112.674C342.572,105.466 341.325,98.238 336.405,93.112C331.831,88.348 324.486,85.77 314.193,85.38C304.189,85 299.403,93.769 295.907,102.051C290.749,114.273 289.239,127.767 288.8,132.23C287.011,150.414 263.274,143.787 263.054,143.581C262.159,142.739 260.814,141.215 259.326,138.935C257.142,135.59 253.261,128.471 247.569,121.459C240.035,112.176 228.453,101.907 212.057,110.764C208.16,112.868 206.718,118.13 205.167,123.327C202.687,131.64 201.684,140.822 201.133,147.622C200.545,154.869 200.157,160.147 199.828,161.445C198.857,165.27 197.01,167.388 195.914,168.52C194.59,169.887 193.022,170.994 191.29,171.783L176.388,170.497C176.079,170.285 174.091,169.229 172.073,166.001L171.384,164.865C168.353,160.051 152.592,135.022 127.761,145.008C120.535,147.914 121.301,155.616 122.047,162.43C123.516,175.849 128.731,188.978 129.341,193.573C131.073,206.625 122.256,211.08 117.057,212.187C116.839,212.233 111.979,214.096 105.623,210.086C104.908,209.634 101.155,207.221 95.684,204.529C89.038,201.261 79.733,197.401 70.364,196.698C63.879,196.211 57.198,197.331 52.551,203.381C47.88,209.462 46.057,215.447 46.961,220.925C49.194,234.475 65.206,243.375 80.398,240.41C85.662,239.383 91.078,241.202 94.655,245.198C98.232,249.193 99.441,254.777 97.84,259.895C84.248,303.321 80.501,326.154 90.679,361.326C110.183,428.73 187.519,450.007 264.982,433.856C295.022,427.593 335.101,417.712 370.499,398.494C403.739,380.447 432.99,354.058 443.757,313.53C455.246,270.285 438.201,223.493 417.703,200.899C389.174,169.453 364.939,166.944 341.632,161.072L341.538,161.052L341.415,161.019L341.385,161.012L341.333,160.997L340.82,160.86L340.659,160.808L340.631,160.8L340.556,160.775L340.11,160.632L339.948,160.571L339.897,160.554L339.768,160.503L339.407,160.368L339.265,160.306L339.182,160.273L338.988,160.185L338.714,160.066L338.602,160.011L338.489,159.96L338.224,159.823L338.032,159.729L337.955,159.685L337.817,159.614L337.483,159.421L337.362,159.354L337.316,159.325L337.167,159.238L336.774,158.984L336.706,158.941L336.683,158.925L336.541,158.833L336.11,158.523L336.065,158.492L336.052,158.481L335.938,158.399L335.524,158.069L335.448,158.01L335.429,157.994L335.359,157.938L335.032,157.651L334.862,157.504L334.83,157.473L334.805,157.451L334.648,157.299C332.93,155.675 331.663,153.72 330.874,151.607L330.797,151.409L330.786,151.375L330.773,151.341L330.707,151.139C329.977,149.004 329.718,146.688 330.021,144.345L330.046,144.127L330.052,144.095L330.057,144.05L330.096,143.828L330.166,143.399L330.185,143.311L330.189,143.287L330.211,143.193L330.322,142.676L330.359,142.54L330.362,142.523L330.377,142.471L330.514,141.958L330.566,141.797L330.573,141.769L330.599,141.694L330.742,141.248L330.803,141.086L330.82,141.035L330.87,140.906L331.006,140.545L331.068,140.403L331.101,140.32L331.189,140.126L331.307,139.852L331.363,139.741L331.414,139.627L331.55,139.362L331.645,139.17L331.689,139.093L331.76,138.955L331.953,138.621L332.02,138.501L332.049,138.454L332.136,138.305L332.39,137.912L332.432,137.845L332.449,137.821L332.541,137.679L332.851,137.248Z"/>
        </g>
        <g transform="matrix(0.622786,0.283764,-0.283764,0.622786,263.856,73.3813)">
            <path d="M167.746,229.888C164.298,251.699 165.52,262.545 175.472,279.59C179.707,286.844 189.036,289.295 196.29,285.059C203.544,280.824 205.995,271.495 201.759,264.241C195.851,254.122 195.766,247.59 197.813,234.64C199.125,226.343 193.453,218.542 185.156,217.23C176.859,215.919 169.057,221.59 167.746,229.888Z" style="fill:rgb(218,197,153);"/>
        </g>
        <g transform="matrix(0.622786,0.283764,-0.283764,0.622786,271.038,70.0948)">
            <path d="M167.746,229.888C164.298,251.699 165.52,262.545 175.472,279.59C179.707,286.844 189.036,289.295 196.29,285.059C203.544,280.824 205.995,271.495 201.759,264.241C195.851,254.122 195.766,247.59 197.813,234.64C199.125,226.343 193.453,218.542 185.156,217.23C176.859,215.919 169.057,221.59 167.746,229.888Z"/>
        </g>
        <g transform="matrix(0.622786,0.283764,-0.283764,0.622786,265.764,75.5275)">
            <path d="M229.371,223.783C234.894,229.101 239.82,236.008 241.833,246.32C243.442,254.565 251.442,259.952 259.687,258.343C267.931,256.734 273.319,248.734 271.71,240.489C268.265,222.839 259.938,210.957 250.485,201.855C244.434,196.028 234.79,196.21 228.964,202.262C223.137,208.313 223.32,217.956 229.371,223.783Z" style="fill:rgb(218,197,153);"/>
        </g>
        <g transform="matrix(0.622786,0.283764,-0.283764,0.622786,271.038,70.0948)">
            <path d="M229.371,223.783C234.894,229.101 239.82,236.008 241.833,246.32C243.442,254.565 251.442,259.952 259.687,258.343C267.931,256.734 273.319,248.734 271.71,240.489C268.265,222.839 259.938,210.957 250.485,201.855C244.434,196.028 234.79,196.21 228.964,202.262C223.137,208.313 223.32,217.956 229.371,223.783Z"/>
        </g>
        <g transform="matrix(0.622786,0.283764,-0.283764,0.622786,268.102,77.1524)">
            <path d="M287.519,199.068C303.689,204.016 311.071,212.068 315.574,220.409C319.565,227.801 328.806,230.563 336.198,226.573C343.59,222.582 346.352,213.341 342.361,205.949C334.906,192.139 323.196,178.151 296.426,169.96C288.393,167.502 279.876,172.028 277.418,180.061C274.96,188.094 279.486,196.611 287.519,199.068Z" style="fill:rgb(218,197,153);"/>
        </g>
        <g transform="matrix(0.622786,0.283764,-0.283764,0.622786,271.038,70.0948)">
            <path d="M287.519,199.068C303.689,204.016 311.071,212.068 315.574,220.409C319.565,227.801 328.806,230.563 336.198,226.573C343.59,222.582 346.352,213.341 342.361,205.949C334.906,192.139 323.196,178.151 296.426,169.96C288.393,167.502 279.876,172.028 277.418,180.061C274.96,188.094 279.486,196.611 287.519,199.068Z"/>
        </g>
    </g>
</svg>
