<?xml version="1.0" encoding="UTF-8" standalone="no"?>
<!DOCTYPE svg PUBLIC "-//W3C//DTD SVG 1.1//EN" "http://www.w3.org/Graphics/SVG/1.1/DTD/svg11.dtd">
<svg width="100%" height="100%" viewBox="0 0 500 500" version="1.1" xmlns="http://www.w3.org/2000/svg" xmlns:xlink="http://www.w3.org/1999/xlink" xml:space="preserve" xmlns:serif="http://www.serif.com/" style="fill-rule:evenodd;clip-rule:evenodd;stroke-linejoin:round;stroke-miterlimit:2;">
    <g transform="matrix(0.684386,0,0,0.684386,-10.6076,21.2468)">
        <path d="M83.314,255.349C68.551,302.517 65.003,327.353 76.058,365.557C97.678,440.275 182.219,466.659 268.089,448.756C330.557,435.732 434.622,407.19 458.467,317.438C471.401,268.752 452.053,216.109 428.976,190.672C397.426,155.898 370.886,152.774 345.118,146.256" style="fill:rgb(246,228,191);"/>
        <path d="M68.788,250.803C52.854,301.714 49.505,328.552 61.437,369.787C85.178,451.834 176.905,483.315 271.195,463.656C303.624,456.895 346.811,445.993 385.024,425.246C425.396,403.327 460.1,370.57 473.177,321.346C487.557,267.218 465.904,208.724 440.248,180.445C405.779,142.452 377.004,138.622 348.851,131.5C340.707,129.44 332.422,134.379 330.362,142.523C328.302,150.667 333.241,158.952 341.385,161.012C364.769,166.927 389.073,169.343 417.703,200.899C438.201,223.493 455.246,270.285 443.757,313.53C432.99,354.058 403.739,380.447 370.499,398.494C335.101,417.712 295.022,427.593 264.982,433.856C187.519,450.007 110.183,428.73 90.679,361.326C80.501,326.154 84.248,303.321 97.84,259.895C100.349,251.878 95.877,243.332 87.86,240.823C79.843,238.314 71.298,242.786 68.788,250.803Z"/>
    </g>
    <g transform="matrix(0.684386,0,0,0.684386,-10.6076,21.2468)">
        <path d="M56.655,334C67.105,375.304 72.989,397.738 98.612,423.048C142.876,466.771 220.536,473.065 275.954,459.247C379.743,433.367 387.484,425.682 428.722,396.007C442.359,386.194 445.463,367.156 435.65,353.519C425.837,339.882 406.798,336.777 393.161,346.59C357.644,372.148 350.615,377.884 261.224,400.173C224.005,409.454 171.124,409.098 141.396,379.734C124.244,362.792 122.672,346.715 115.677,319.067C111.556,302.78 94.987,292.902 78.7,297.023C62.412,301.143 52.534,317.712 56.655,334Z" style="fill:rgb(218,197,153);"/>
    </g>
    <g transform="matrix(0.684386,0,0,0.684386,-10.6076,21.2468)">
        <path d="M68.788,250.803C52.854,301.714 49.505,328.552 61.437,369.787C85.178,451.834 176.905,483.315 271.195,463.656C303.624,456.895 346.811,445.993 385.024,425.246C425.396,403.327 460.1,370.57 473.177,321.346C487.557,267.218 465.904,208.724 440.248,180.445C405.779,142.452 377.004,138.622 348.851,131.5C340.707,129.44 332.422,134.379 330.362,142.523C328.302,150.667 333.241,158.952 341.385,161.012C364.769,166.927 389.073,169.343 417.703,200.899C438.201,223.493 455.246,270.285 443.757,313.53C432.99,354.058 403.739,380.447 370.499,398.494C335.101,417.712 295.022,427.593 264.982,433.856C187.519,450.007 110.183,428.73 90.679,361.326C80.501,326.154 84.248,303.321 97.84,259.895C100.349,251.878 95.877,243.332 87.86,240.823C79.843,238.314 71.298,242.786 68.788,250.803Z"/>
    </g>
    <g transform="matrix(0.684386,0,0,0.684386,-10.6076,21.2468)">
        <path d="M83.314,255.349C49.388,261.97 14.681,227.698 40.481,194.109C63.844,163.693 113.783,197.322 113.887,197.3C117.998,196.425 90.116,143.741 122.082,130.886C160.849,115.297 184.976,157.936 184.979,157.933C186.105,156.77 184.719,108.232 204.823,97.372C246.42,74.903 269.068,128.345 273.48,132.492C273.617,132.621 277.127,68.742 314.771,70.17C365.67,72.102 364.236,120.416 345.118,146.256" style="fill:rgb(246,228,191);"/>
        <path d="M265.68,96.036C265.024,95.344 264.36,94.672 263.693,94.025C248.076,78.878 226.049,68.608 197.59,83.98C189.318,88.449 182.9,96.674 178.683,106.962C176.632,111.965 175.051,118.062 173.842,124.206C159.775,114.2 140.135,107.222 116.403,116.765C98.386,124.011 91.766,138.866 91.328,155.58C91.207,160.18 91.728,165.373 92.555,170.501C86.645,168.57 80.28,167.042 73.892,166.447C57.137,164.887 40.42,169.202 28.41,184.838C17.599,198.912 14.835,213.199 16.925,225.877C21.676,254.696 53.917,276.594 86.23,270.287C94.474,268.678 99.862,260.678 98.253,252.433C96.643,244.188 88.643,238.801 80.398,240.41C65.206,243.375 49.194,234.475 46.961,220.925C46.057,215.447 47.88,209.462 52.551,203.381C57.198,197.331 63.879,196.211 70.364,196.698C79.733,197.401 89.038,201.261 95.684,204.529C101.155,207.221 104.908,209.634 105.623,210.086C111.979,214.096 116.839,212.233 117.057,212.187C122.256,211.08 131.073,206.625 129.341,193.573C128.731,188.978 123.516,175.849 122.047,162.43C121.301,155.616 120.535,147.914 127.761,145.008C152.592,135.022 168.353,160.051 171.384,164.865L172.073,166.001C174.091,169.229 176.079,170.285 176.388,170.497L184.979,173.153C189.101,173.153 193.047,171.481 195.914,168.52C197.01,167.388 198.857,165.27 199.828,161.445C200.157,160.147 200.545,154.869 201.133,147.622C201.684,140.822 202.687,131.64 205.167,123.327C206.718,118.13 208.16,112.868 212.057,110.764C228.453,101.907 240.035,112.176 247.569,121.459C253.261,128.471 257.142,135.59 259.326,138.935C260.814,141.215 262.159,142.739 263.054,143.581C263.274,143.787 287.011,150.414 288.8,132.23C289.239,127.767 290.749,114.273 295.907,102.051C299.403,93.769 304.189,85 314.193,85.38C324.486,85.77 331.831,88.348 336.405,93.112C341.325,98.238 342.572,105.466 342.03,112.674C341.369,121.445 337.942,130.364 332.882,137.203C327.886,143.957 329.312,153.496 336.065,158.492C342.819,163.488 352.358,162.062 357.354,155.308C372.096,135.382 377.691,104.928 366.45,83.321C358.558,68.15 342.905,56.006 315.348,54.961C295.571,54.21 281.811,65.089 272.851,80.237C269.921,85.192 267.566,90.624 265.68,96.036Z"/>
    </g>
    <g transform="matrix(0.684386,0,0,0.684386,-15.7803,27.2153)">
        <path d="M167.746,229.888C164.298,251.699 165.52,262.545 175.472,279.59C179.707,286.844 189.036,289.295 196.29,285.059C203.544,280.824 205.995,271.495 201.759,264.241C195.851,254.122 195.766,247.59 197.813,234.64C199.125,226.343 193.453,218.542 185.156,217.23C176.859,215.919 169.057,221.59 167.746,229.888Z" style="fill:rgb(218,197,153);"/>
    </g>
    <g transform="matrix(0.684386,0,0,0.684386,-10.6076,21.2468)">
        <path d="M167.746,229.888C164.298,251.699 165.52,262.545 175.472,279.59C179.707,286.844 189.036,289.295 196.29,285.059C203.544,280.824 205.995,271.495 201.759,264.241C195.851,254.122 195.766,247.59 197.813,234.64C199.125,226.343 193.453,218.542 185.156,217.23C176.859,215.919 169.057,221.59 167.746,229.888Z"/>
    </g>
    <g transform="matrix(0.684386,0,0,0.684386,-13.1541,28.3772)">
        <path d="M229.371,223.783C234.894,229.101 239.82,236.008 241.833,246.32C243.442,254.565 251.442,259.952 259.687,258.343C267.931,256.734 273.319,248.734 271.71,240.489C268.265,222.839 259.938,210.957 250.485,201.855C244.434,196.028 234.79,196.21 228.964,202.262C223.137,208.313 223.32,217.956 229.371,223.783Z" style="fill:rgb(218,197,153);"/>
    </g>
    <g transform="matrix(0.684386,0,0,0.684386,-10.6076,21.2468)">
        <path d="M229.371,223.783C234.894,229.101 239.82,236.008 241.833,246.32C243.442,254.565 251.442,259.952 259.687,258.343C267.931,256.734 273.319,248.734 271.71,240.489C268.265,222.839 259.938,210.957 250.485,201.855C244.434,196.028 234.79,196.21 228.964,202.262C223.137,208.313 223.32,217.956 229.371,223.783Z"/>
    </g>
    <g transform="matrix(0.684386,0,0,0.684386,-10.3529,28.8865)">
        <path d="M287.519,199.068C303.689,204.016 311.071,212.068 315.574,220.409C319.565,227.801 328.806,230.563 336.198,226.573C343.59,222.582 346.352,213.341 342.361,205.949C334.906,192.139 323.196,178.151 296.426,169.96C288.393,167.502 279.876,172.028 277.418,180.061C274.96,188.094 279.486,196.611 287.519,199.068Z" style="fill:rgb(218,197,153);"/>
    </g>
    <g transform="matrix(0.684386,0,0,0.684386,-10.6076,21.2468)">
        <path d="M287.519,199.068C303.689,204.016 311.071,212.068 315.574,220.409C319.565,227.801 328.806,230.563 336.198,226.573C343.59,222.582 346.352,213.341 342.361,205.949C334.906,192.139 323.196,178.151 296.426,169.96C288.393,167.502 279.876,172.028 277.418,180.061C274.96,188.094 279.486,196.611 287.519,199.068Z"/>
    </g>
    <g transform="matrix(0.622786,0.283764,-0.283764,0.622786,271.038,70.0948)">
        <path d="M83.314,255.349C68.551,302.517 65.003,327.353 76.058,365.557C97.678,440.275 182.219,466.659 268.089,448.756C330.557,435.732 434.622,407.19 458.467,317.438C471.401,268.752 452.053,216.109 428.976,190.672C397.426,155.898 370.886,152.774 345.118,146.256" style="fill:rgb(246,228,191);"/>
        <path d="M68.788,250.803C52.854,301.714 49.505,328.552 61.437,369.787C85.178,451.834 176.905,483.315 271.195,463.656C303.624,456.895 346.811,445.993 385.024,425.246C425.396,403.327 460.1,370.57 473.177,321.346C487.557,267.218 465.904,208.724 440.248,180.445C405.779,142.452 377.004,138.622 348.851,131.5C340.707,129.44 332.422,134.379 330.362,142.523C328.302,150.667 333.241,158.952 341.385,161.012C364.769,166.927 389.073,169.343 417.703,200.899C438.201,223.493 455.246,270.285 443.757,313.53C432.99,354.058 403.739,380.447 370.499,398.494C335.101,417.712 295.022,427.593 264.982,433.856C187.519,450.007 110.183,428.73 90.679,361.326C80.501,326.154 84.248,303.321 97.84,259.895C100.349,251.878 95.877,243.332 87.86,240.823C79.843,238.314 71.298,242.786 68.788,250.803Z"/>
    </g>
    <g transform="matrix(0.622786,0.283764,-0.283764,0.622786,271.038,70.0948)">
        <path d="M56.346,333.505C66.755,374.646 72.4,399.586 97.922,424.796C142.237,468.568 218.936,473.051 274.417,459.217C378.13,433.356 386.204,421.664 427.411,392.012C441.048,382.198 444.153,363.16 434.34,349.523C424.526,335.886 405.488,332.781 391.851,342.595C356.304,368.174 349.153,377.835 259.687,400.143C222.528,409.409 170.386,410.799 140.706,381.482C123.451,364.438 122.405,346.387 115.368,318.572C111.247,302.285 94.678,292.407 78.391,296.528C62.103,300.649 52.225,317.218 56.346,333.505Z" style="fill:rgb(218,197,153);"/>
    </g>
    <g transform="matrix(0.622786,0.283764,-0.283764,0.622786,271.038,70.0948)">
        <path d="M68.788,250.803C52.854,301.714 49.505,328.552 61.437,369.787C85.178,451.834 176.905,483.315 271.195,463.656C303.624,456.895 346.811,445.993 385.024,425.246C425.396,403.327 460.1,370.57 473.177,321.346C487.557,267.218 465.904,208.724 440.248,180.445C405.779,142.452 377.004,138.622 348.851,131.5C340.707,129.44 332.422,134.379 330.362,142.523C328.302,150.667 333.241,158.952 341.385,161.012C364.769,166.927 389.073,169.343 417.703,200.899C438.201,223.493 455.246,270.285 443.757,313.53C432.99,354.058 403.739,380.447 370.499,398.494C335.101,417.712 295.022,427.593 264.982,433.856C187.519,450.007 110.183,428.73 90.679,361.326C80.501,326.154 84.248,303.321 97.84,259.895C100.349,251.878 95.877,243.332 87.86,240.823C79.843,238.314 71.298,242.786 68.788,250.803Z"/>
    </g>
    <g transform="matrix(0.622786,0.283764,-0.283764,0.622786,271.038,70.0948)">
        <path d="M83.314,255.349C49.388,261.97 14.681,227.698 40.481,194.109C63.844,163.693 113.783,197.322 113.887,197.3C117.998,196.425 90.116,143.741 122.082,130.886C160.849,115.297 184.976,157.936 184.979,157.933C186.105,156.77 184.719,108.232 204.823,97.372C246.42,74.903 269.068,128.345 273.48,132.492C273.617,132.621 277.127,68.742 314.771,70.17C365.67,72.102 364.236,120.416 345.118,146.256" style="fill:rgb(246,228,191);"/>
        <path d="M92.555,170.501C86.645,168.57 80.28,167.042 73.892,166.447C57.137,164.887 40.42,169.202 28.41,184.838C17.599,198.912 14.835,213.199 16.925,225.877C21.676,254.696 53.917,276.594 86.23,270.287C94.474,268.678 99.862,260.678 98.253,252.433C96.643,244.188 88.643,238.801 80.398,240.41C65.206,243.375 49.194,234.475 46.961,220.925C46.057,215.447 47.88,209.462 52.551,203.381C57.198,197.331 63.879,196.211 70.364,196.698C79.733,197.401 89.038,201.261 95.684,204.529C101.155,207.221 104.908,209.634 105.623,210.086C111.979,214.096 116.839,212.233 117.057,212.187C122.256,211.08 131.073,206.625 129.341,193.573C128.731,188.978 123.516,175.849 122.047,162.43C121.301,155.616 120.535,147.914 127.761,145.008C152.592,135.022 168.353,160.051 171.384,164.865L172.073,166.001C174.091,169.229 176.079,170.285 176.388,170.497L191.29,171.783C193.022,170.994 194.59,169.887 195.914,168.52C197.01,167.388 198.857,165.27 199.828,161.445C200.157,160.147 200.545,154.869 201.133,147.622C201.684,140.822 202.687,131.64 205.167,123.327C206.718,118.13 208.16,112.868 212.057,110.764C228.453,101.907 240.035,112.176 247.569,121.459C253.261,128.471 257.142,135.59 259.326,138.935C260.814,141.215 262.159,142.739 263.054,143.581C263.274,143.787 287.011,150.414 288.8,132.23C289.239,127.767 290.749,114.273 295.907,102.051C299.403,93.769 304.189,85 314.193,85.38C324.486,85.77 331.831,88.348 336.405,93.112C341.325,98.238 342.572,105.466 342.03,112.674C341.369,121.445 337.942,130.364 332.882,137.203C327.886,143.957 329.312,153.496 336.065,158.492C342.819,163.488 352.358,162.062 357.354,155.308C372.096,135.382 377.691,104.928 366.45,83.321C358.558,68.15 342.905,56.006 315.348,54.961C295.571,54.21 281.811,65.089 272.851,80.237C269.921,85.192 267.566,90.624 265.68,96.036C265.024,95.344 264.36,94.672 263.693,94.025C248.076,78.878 226.049,68.608 197.59,83.98C189.318,88.449 182.9,96.674 178.683,106.962C176.632,111.965 175.051,118.062 173.842,124.206C159.775,114.2 140.135,107.222 116.403,116.765C98.386,124.011 91.766,138.866 91.328,155.58C91.207,160.18 91.728,165.373 92.555,170.501Z"/>
    </g>
    <g transform="matrix(0.622786,0.283764,-0.283764,0.622786,263.856,73.3813)">
        <path d="M167.746,229.888C164.298,251.699 165.52,262.545 175.472,279.59C179.707,286.844 189.036,289.295 196.29,285.059C203.544,280.824 205.995,271.495 201.759,264.241C195.851,254.122 195.766,247.59 197.813,234.64C199.125,226.343 193.453,218.542 185.156,217.23C176.859,215.919 169.057,221.59 167.746,229.888Z" style="fill:rgb(218,197,153);"/>
    </g>
    <g transform="matrix(0.622786,0.283764,-0.283764,0.622786,271.038,70.0948)">
        <path d="M167.746,229.888C164.298,251.699 165.52,262.545 175.472,279.59C179.707,286.844 189.036,289.295 196.29,285.059C203.544,280.824 205.995,271.495 201.759,264.241C195.851,254.122 195.766,247.59 197.813,234.64C199.125,226.343 193.453,218.542 185.156,217.23C176.859,215.919 169.057,221.59 167.746,229.888Z"/>
    </g>
    <g transform="matrix(0.622786,0.283764,-0.283764,0.622786,265.764,75.5275)">
        <path d="M229.371,223.783C234.894,229.101 239.82,236.008 241.833,246.32C243.442,254.565 251.442,259.952 259.687,258.343C267.931,256.734 273.319,248.734 271.71,240.489C268.265,222.839 259.938,210.957 250.485,201.855C244.434,196.028 234.79,196.21 228.964,202.262C223.137,208.313 223.32,217.956 229.371,223.783Z" style="fill:rgb(218,197,153);"/>
    </g>
    <g transform="matrix(0.622786,0.283764,-0.283764,0.622786,271.038,70.0948)">
        <path d="M229.371,223.783C234.894,229.101 239.82,236.008 241.833,246.32C243.442,254.565 251.442,259.952 259.687,258.343C267.931,256.734 273.319,248.734 271.71,240.489C268.265,222.839 259.938,210.957 250.485,201.855C244.434,196.028 234.79,196.21 228.964,202.262C223.137,208.313 223.32,217.956 229.371,223.783Z"/>
    </g>
    <g transform="matrix(0.622786,0.283764,-0.283764,0.622786,268.102,77.1524)">
        <path d="M287.519,199.068C303.689,204.016 311.071,212.068 315.574,220.409C319.565,227.801 328.806,230.563 336.198,226.573C343.59,222.582 346.352,213.341 342.361,205.949C334.906,192.139 323.196,178.151 296.426,169.96C288.393,167.502 279.876,172.028 277.418,180.061C274.96,188.094 279.486,196.611 287.519,199.068Z" style="fill:rgb(218,197,153);"/>
    </g>
    <g transform="matrix(0.622786,0.283764,-0.283764,0.622786,271.038,70.0948)">
        <path d="M287.519,199.068C303.689,204.016 311.071,212.068 315.574,220.409C319.565,227.801 328.806,230.563 336.198,226.573C343.59,222.582 346.352,213.341 342.361,205.949C334.906,192.139 323.196,178.151 296.426,169.96C288.393,167.502 279.876,172.028 277.418,180.061C274.96,188.094 279.486,196.611 287.519,199.068Z"/>
    </g>
</svg>
